<svg width="270" height="51" viewBox="0 0 270 51" fill="none" xmlns="http://www.w3.org/2000/svg">
<g clip-path="url(#clip0_402_280)">
<path d="M0 25.8182C0 12.0111 11.193 0.818176 25 0.818176C38.807 0.818176 50 12.0111 50 25.8182L25 27.9921L0 25.8182Z" fill="#FFDA44"/>
<path d="M3.34531 38.3182C7.66806 45.7904 15.7466 50.8182 25 50.8182C34.2534 50.8182 42.3319 45.7904 46.6547 38.3182L25 36.6877L3.34531 38.3182Z" fill="#D80027"/>
<path d="M46.6547 38.3182C48.7818 34.641 50 30.372 50 25.8182H0C0 30.372 1.21816 34.641 3.34531 38.3182H46.6547Z" fill="#0052B4"/>
</g>
<path d="M107.262 33.7479V38.3182H89.4023V34.451L97.6289 25.8026C98.3555 24.9705 98.9414 24.2264 99.3867 23.5701C99.832 22.9022 100.154 22.2986 100.354 21.7596C100.564 21.2205 100.67 20.7342 100.67 20.3006C100.67 19.5623 100.559 18.9471 100.336 18.4549C100.125 17.951 99.8086 17.5701 99.3867 17.3123C98.9766 17.0545 98.4668 16.9256 97.8574 16.9256C97.248 16.9256 96.7148 17.1014 96.2578 17.4529C95.8008 17.8045 95.4434 18.285 95.1855 18.8943C94.9395 19.5037 94.8164 20.1893 94.8164 20.951H88.875C88.875 19.3807 89.2559 17.9451 90.0176 16.6443C90.791 15.3436 91.8633 14.3065 93.2344 13.533C94.6055 12.7479 96.1934 12.3553 97.998 12.3553C99.8848 12.3553 101.467 12.6483 102.744 13.2342C104.021 13.8201 104.982 14.6697 105.627 15.783C106.283 16.8846 106.611 18.2147 106.611 19.7733C106.611 20.6639 106.471 21.5193 106.189 22.3397C105.908 23.16 105.504 23.9744 104.977 24.783C104.449 25.5799 103.805 26.4002 103.043 27.244C102.293 28.0877 101.438 28.9842 100.477 29.9334L97.1719 33.7479H107.262ZM128.057 23.1834V27.8592C128.057 29.699 127.84 31.2986 127.406 32.658C126.984 34.0174 126.375 35.1424 125.578 36.033C124.793 36.9236 123.855 37.5858 122.766 38.0193C121.676 38.4529 120.475 38.6697 119.162 38.6697C118.107 38.6697 117.123 38.535 116.209 38.2654C115.295 37.9842 114.469 37.5623 113.73 36.9998C113.004 36.4256 112.377 35.7108 111.85 34.8553C111.322 33.9998 110.918 32.992 110.637 31.8318C110.355 30.66 110.215 29.3358 110.215 27.8592V23.1834C110.215 21.3318 110.426 19.7322 110.848 18.3846C111.281 17.0252 111.896 15.9002 112.693 15.0096C113.49 14.119 114.434 13.4568 115.523 13.0233C116.613 12.5897 117.814 12.3729 119.127 12.3729C120.182 12.3729 121.16 12.5135 122.062 12.7947C122.977 13.0643 123.803 13.4861 124.541 14.0604C125.279 14.6229 125.906 15.3318 126.422 16.1873C126.949 17.0428 127.354 18.0565 127.635 19.2283C127.916 20.3885 128.057 21.7068 128.057 23.1834ZM122.133 28.5799V22.4276C122.133 21.6072 122.086 20.8924 121.992 20.283C121.91 19.6736 121.781 19.158 121.605 18.7361C121.441 18.3143 121.236 17.9744 120.99 17.7166C120.744 17.4471 120.463 17.2537 120.146 17.1365C119.842 17.0076 119.502 16.9432 119.127 16.9432C118.658 16.9432 118.236 17.0428 117.861 17.242C117.498 17.4295 117.188 17.7342 116.93 18.1561C116.672 18.5779 116.473 19.1404 116.332 19.8436C116.203 20.5467 116.139 21.408 116.139 22.4276V28.5799C116.139 29.4119 116.18 30.1385 116.262 30.7596C116.355 31.369 116.484 31.8904 116.648 32.324C116.824 32.7459 117.035 33.0916 117.281 33.3611C117.527 33.619 117.809 33.8065 118.125 33.9236C118.441 34.0408 118.787 34.0994 119.162 34.0994C119.619 34.0994 120.029 34.0057 120.393 33.8182C120.756 33.6307 121.066 33.326 121.324 32.9041C121.594 32.4705 121.793 31.9022 121.922 31.199C122.062 30.4842 122.133 29.6111 122.133 28.5799ZM131.66 35.5408C131.66 34.6971 131.965 33.994 132.574 33.4315C133.184 32.8572 133.969 32.5701 134.93 32.5701C135.902 32.5701 136.688 32.8572 137.285 33.4315C137.895 33.994 138.199 34.6971 138.199 35.5408C138.199 36.3846 137.895 37.0936 137.285 37.6678C136.688 38.2303 135.902 38.5115 134.93 38.5115C133.969 38.5115 133.184 38.2303 132.574 37.6678C131.965 37.0936 131.66 36.3846 131.66 35.5408ZM131.66 21.5135C131.66 20.6697 131.965 19.9666 132.574 19.4041C133.184 18.8299 133.969 18.5428 134.93 18.5428C135.902 18.5428 136.688 18.8299 137.285 19.4041C137.895 19.9666 138.199 20.6697 138.199 21.5135C138.199 22.3572 137.895 23.0662 137.285 23.6404C136.688 24.2029 135.902 24.4842 134.93 24.4842C133.969 24.4842 133.184 24.2029 132.574 23.6404C131.965 23.0662 131.66 22.3572 131.66 21.5135ZM159.768 23.1834V27.8592C159.768 29.699 159.551 31.2986 159.117 32.658C158.695 34.0174 158.086 35.1424 157.289 36.033C156.504 36.9236 155.566 37.5858 154.477 38.0193C153.387 38.4529 152.186 38.6697 150.873 38.6697C149.818 38.6697 148.834 38.535 147.92 38.2654C147.006 37.9842 146.18 37.5623 145.441 36.9998C144.715 36.4256 144.088 35.7108 143.561 34.8553C143.033 33.9998 142.629 32.992 142.348 31.8318C142.066 30.66 141.926 29.3358 141.926 27.8592V23.1834C141.926 21.3318 142.137 19.7322 142.559 18.3846C142.992 17.0252 143.607 15.9002 144.404 15.0096C145.201 14.119 146.145 13.4568 147.234 13.0233C148.324 12.5897 149.525 12.3729 150.838 12.3729C151.893 12.3729 152.871 12.5135 153.773 12.7947C154.688 13.0643 155.514 13.4861 156.252 14.0604C156.99 14.6229 157.617 15.3318 158.133 16.1873C158.66 17.0428 159.064 18.0565 159.346 19.2283C159.627 20.3885 159.768 21.7068 159.768 23.1834ZM153.844 28.5799V22.4276C153.844 21.6072 153.797 20.8924 153.703 20.283C153.621 19.6736 153.492 19.158 153.316 18.7361C153.152 18.3143 152.947 17.9744 152.701 17.7166C152.455 17.4471 152.174 17.2537 151.857 17.1365C151.553 17.0076 151.213 16.9432 150.838 16.9432C150.369 16.9432 149.947 17.0428 149.572 17.242C149.209 17.4295 148.898 17.7342 148.641 18.1561C148.383 18.5779 148.184 19.1404 148.043 19.8436C147.914 20.5467 147.85 21.408 147.85 22.4276V28.5799C147.85 29.4119 147.891 30.1385 147.973 30.7596C148.066 31.369 148.195 31.8904 148.359 32.324C148.535 32.7459 148.746 33.0916 148.992 33.3611C149.238 33.619 149.52 33.8065 149.836 33.9236C150.152 34.0408 150.498 34.0994 150.873 34.0994C151.33 34.0994 151.74 34.0057 152.104 33.8182C152.467 33.6307 152.777 33.326 153.035 32.9041C153.305 32.4705 153.504 31.9022 153.633 31.199C153.773 30.4842 153.844 29.6111 153.844 28.5799ZM180.65 23.1834V27.8592C180.65 29.699 180.434 31.2986 180 32.658C179.578 34.0174 178.969 35.1424 178.172 36.033C177.387 36.9236 176.449 37.5858 175.359 38.0193C174.27 38.4529 173.068 38.6697 171.756 38.6697C170.701 38.6697 169.717 38.535 168.803 38.2654C167.889 37.9842 167.062 37.5623 166.324 36.9998C165.598 36.4256 164.971 35.7108 164.443 34.8553C163.916 33.9998 163.512 32.992 163.23 31.8318C162.949 30.66 162.809 29.3358 162.809 27.8592V23.1834C162.809 21.3318 163.02 19.7322 163.441 18.3846C163.875 17.0252 164.49 15.9002 165.287 15.0096C166.084 14.119 167.027 13.4568 168.117 13.0233C169.207 12.5897 170.408 12.3729 171.721 12.3729C172.775 12.3729 173.754 12.5135 174.656 12.7947C175.57 13.0643 176.396 13.4861 177.135 14.0604C177.873 14.6229 178.5 15.3318 179.016 16.1873C179.543 17.0428 179.947 18.0565 180.229 19.2283C180.51 20.3885 180.65 21.7068 180.65 23.1834ZM174.727 28.5799V22.4276C174.727 21.6072 174.68 20.8924 174.586 20.283C174.504 19.6736 174.375 19.158 174.199 18.7361C174.035 18.3143 173.83 17.9744 173.584 17.7166C173.338 17.4471 173.057 17.2537 172.74 17.1365C172.436 17.0076 172.096 16.9432 171.721 16.9432C171.252 16.9432 170.83 17.0428 170.455 17.242C170.092 17.4295 169.781 17.7342 169.523 18.1561C169.266 18.5779 169.066 19.1404 168.926 19.8436C168.797 20.5467 168.732 21.408 168.732 22.4276V28.5799C168.732 29.4119 168.773 30.1385 168.855 30.7596C168.949 31.369 169.078 31.8904 169.242 32.324C169.418 32.7459 169.629 33.0916 169.875 33.3611C170.121 33.619 170.402 33.8065 170.719 33.9236C171.035 34.0408 171.381 34.0994 171.756 34.0994C172.213 34.0994 172.623 34.0057 172.986 33.8182C173.35 33.6307 173.66 33.326 173.918 32.9041C174.188 32.4705 174.387 31.9022 174.516 31.199C174.656 30.4842 174.727 29.6111 174.727 28.5799Z" fill="#E1E1E6"/>
<g clip-path="url(#clip1_402_280)">
<path d="M245 50.8182C258.807 50.8182 270 39.6253 270 25.8182C270 12.0111 258.807 0.818176 245 0.818176C231.193 0.818176 220 12.0111 220 25.8182C220 39.6253 231.193 50.8182 245 50.8182Z" fill="#F0F0F0"/>
<path d="M245 36.6877C251.003 36.6877 255.87 31.8213 255.87 25.8182C255.87 19.8151 251.003 14.9487 245 14.9487C238.997 14.9487 234.13 19.8151 234.13 25.8182C234.13 31.8213 238.997 36.6877 245 36.6877Z" fill="#D80027"/>
</g>
<defs>
<clipPath id="clip0_402_280">
<rect width="50" height="50" fill="white" transform="translate(0 0.818176)"/>
</clipPath>
<clipPath id="clip1_402_280">
<rect width="50" height="50" fill="white" transform="translate(220 0.818176)"/>
</clipPath>
</defs>
</svg>
